HIERARCHY
ROOT Hips
{
  OFFSET 11.3391 97.7151 185.506
  CHANNELS 6 Xposition Yposition Zposition Zrotation Xrotation Yrotation
  JOINT RightUpLeg
  {
    OFFSET -8.9458 -8.66707 0.101652
    CHANNELS 3 Zrotation Xrotation Yrotation
    JOINT RightLeg
    {
      OFFSET 0 -44.4227 1.3727
      CHANNELS 3 Zrotation Xrotation Yrotation
      JOINT RightFoot
      {
        OFFSET 0.253549 -42.0924 -1.46059
        CHANNELS 3 Zrotation Xrotation Yrotation
        JOINT RightToes
        {
          OFFSET 0.04 -4.41509 8.4991
          CHANNELS 3 Zrotation Xrotation Yrotation
          End Site
          {
            OFFSET -0.08 -0.137448 9.77979
          }
        }
      }
    }
  }
  JOINT Spine
  {
    OFFSET 0 11.8905 0
    CHANNELS 3 Zrotation Xrotation Yrotation
    JOINT Spine1
    {
      OFFSET 0 25.6574 0.127663
      CHANNELS 3 Zrotation Xrotation Yrotation
      JOINT HEad
      {
        OFFSET 0 8.73416 0.011341
        CHANNELS 3 Zrotation Xrotation Yrotation
        End Site
        {
          OFFSET -0.29 12.7742 2.51395
        }
      }
      JOINT LeftShoulder1
      {
        OFFSET 8.99 -0.362252 -0.22
        CHANNELS 3 Zrotation Xrotation Yrotation
        JOINT LeftArm
        {
          OFFSET 10.2827 -0.00338 0.322123
          CHANNELS 3 Zrotation Xrotation Yrotation
          JOINT LeftForeArm
          {
            OFFSET 32.7669 0.099144 -1.42434
            CHANNELS 3 Zrotation Xrotation Yrotation
            JOINT LeftHand
            {
              OFFSET 27.5643 0.085362 1.02216
              CHANNELS 3 Zrotation Xrotation Yrotation
              End Site
              {
                OFFSET 16.7443 -0.6 1.50291
              }
            }
          }
        }
      }
      JOINT RightShoulder
      {
        OFFSET -8.99 -0.362252 -0.22
        CHANNELS 3 Zrotation Xrotation Yrotation
        JOINT RightArm
        {
          OFFSET -10.2827 -0.00338 0.322123
          CHANNELS 3 Zrotation Xrotation Yrotation
          JOINT RightForeArm
          {
            OFFSET -32.8971 0.099144 -1.42434
            CHANNELS 3 Zrotation Xrotation Yrotation
            JOINT RightHand
            {
              OFFSET -27.4921 0.085362 1.02216
              CHANNELS 3 Zrotation Xrotation Yrotation
              End Site
              {
                OFFSET -16.6312 -0.6 1.50291
              }
            }
          }
        }
      }
    }
  }
  JOINT LeftUpLeg
  {
    OFFSET 8.9458 -8.66707 0.101652
    CHANNELS 3 Zrotation Xrotation Yrotation
    JOINT LeftLeg
    {
      OFFSET 0 -44.4227 1.3727
      CHANNELS 3 Zrotation Xrotation Yrotation
      JOINT LeftFoot
      {
        OFFSET -0.253549 -42.0924 -1.46059
        CHANNELS 3 Zrotation Xrotation Yrotation
        JOINT LeftToes
        {
          OFFSET -0.04 -4.41509 8.4991
          CHANNELS 3 Zrotation Xrotation Yrotation
          End Site
          {
            OFFSET 0.08 -0.047448 9.77979
          }
        }
      }
    }
  }
}
MOTION
Frames:	17
Frame Time:	0.0166667
7.653 98.8617 0.0573149 -3.66998 -0.390464 177.858 -3.88809 1.31611 -11.8117 -5.66015 54.402 -5.70531 1.36659 1.57595 -0.211145 -4.79653 21.8656 2.00812 2.65189 2.47383 -1.19358 -5.80582 -10.4553 -0.482938 -4.46611 0.614199 -0.666229 -9.93923e-017 -1.59028e-015 7.95139e-016 -76.2606 -43.5945 -1.7839 -26.2958 12.8685 -6.08572 0.368473 9.90896 -0.00117926 -8.58155 0.185833 15.9258 103.899 -27.2413 12.9426 15.8658 13.5563 7.72214 -0.369625 9.91382 0.00119885 -9.39573 -20.3706 -9.61683 -2.85549 21.4457 21.7814 -9.40165 -7.199 -0.304396 -7.07057 -11.4537 5.04289 
7.46275 98.9475 -1.48549 -4.18124 -0.361685 177.855 -4.95956 -1.33806 -12.9829 -7.78831 58.187 -6.89874 1.11079 3.29142 -0.225245 -4.45411 22.6425 0.838547 1.81398 2.6206 -1.11924 -5.85209 -10.1511 -0.432441 -4.5226 0.555359 -0.435917 4.96962e-017 -7.95139e-016 -3.97569e-016 -77.604 -41.6198 -2.78349 -27.2304 13.3049 -8.22804 0.368473 9.90896 -0.00117926 -8.6246 0.172493 15.4469 104 -28.2209 12.5664 15.1957 13.3565 6.44965 -0.369625 9.91382 0.00119885 -10.0108 -19.382 -11.0985 -3.54953 21.4306 23.3381 -9.51587 -7.94988 -0.364137 -7.0861 -11.8478 4.81495 
7.31622 98.9679 -2.96032 -4.69815 -0.244924 177.887 -5.88292 -4.0537 -13.9762 -10.527 61.6511 -8.24289 0.477785 3.14555 -0.199927 -4.01622 22.176 0.0381347 1.01532 2.78672 -1.08359 -6.12371 -9.66885 -0.396315 -4.40381 0.349035 -0.298669 -1.49089e-016 -1.59028e-015 -0 -79.0125 -39.6298 -4.1837 -27.7359 13.6531 -9.77979 0.368473 9.90896 -0.00117926 -8.34311 0.211071 14.5803 103.792 -29.1042 12.1621 14.7371 13.2443 5.74138 -0.369625 9.91382 0.00119885 -10.5927 -18.4702 -11.7736 -4.0804 21.6814 24.0352 -9.72357 -8.84491 -0.444719 -7.15087 -11.9438 4.86779 
7.18572 98.9616 -4.38653 -5.10211 -0.124276 177.9 -6.59854 -6.86944 -14.6221 -13.0975 64.7213 -8.88076 -0.120629 2.31084 -0.170187 -3.61276 20.7645 -0.325775 0.293667 2.94918 -1.04884 -6.39002 -9.15235 -0.362686 -4.22404 0.0954143 -0.232954 -4.47266e-016 0 3.97569e-016 -80.4064 -37.4417 -5.7454 -28.0607 13.9577 -11.0412 0.368473 9.90896 -0.00117926 -7.7916 0.276706 13.3603 103.181 -29.8083 11.6829 14.5871 13.2069 5.48781 -0.369625 9.91382 0.00119885 -11.0325 -17.6376 -11.8722 -4.44574 22.0644 24.1677 -9.90333 -9.77832 -0.529744 -7.1968 -12.0335 4.89298 
7.0492 98.952 -5.79931 -5.24682 -0.0759732 177.846 -6.84367 -9.81389 -14.4608 -15.4109 67.2514 -6.50124 -0.143197 1.77428 -0.166174 -3.46605 18.6973 0.213252 -0.261709 3.08935 -0.991602 -6.46921 -8.75559 -0.327356 -4.08677 -0.150558 -0.250004 -4.96962e-017 7.95139e-016 -0 -81.689 -34.9847 -7.25678 -28.3371 14.2567 -12.2419 0.368473 9.90896 -0.00117926 -6.93518 0.361546 11.7254 101.963 -30.248 11.0094 14.9301 13.2334 5.69986 -0.369625 9.91382 0.00119885 -11.2016 -16.9335 -11.17 -4.50217 22.6128 23.5214 -9.8934 -10.7429 -0.609975 -7.1849 -12.3738 4.64834 
6.92229 98.9464 -7.19834 -5.23312 -0.0582009 177.826 -6.7729 -12.7701 -13.8917 -17.5412 69.156 -3.44368 -0.0334485 1.08688 -0.169506 -3.07805 16.0268 0.579353 -0.681826 3.19701 -0.937761 -6.47166 -8.42322 -0.295816 -3.90425 -0.279823 -0.380704 7.45443e-016 -1.59028e-015 -3.97569e-016 -82.9185 -32.3591 -8.9059 -28.4752 14.4657 -13.0349 0.368473 9.90896 -0.00117926 -5.87649 0.444078 9.88694 100.401 -30.5407 10.2531 15.5059 13.2949 6.14749 -0.369625 9.91382 0.00119885 -11.2329 -16.2576 -10.2239 -4.40325 23.1914 22.6059 -9.86609 -11.7003 -0.691423 -7.06964 -12.7281 4.20415 
6.81398 98.9668 -8.61135 -5.072 -0.0891398 177.979 -6.51508 -15.635 -13.1817 -17.9234 70.4234 -3.04241 -0.0668319 0.136382 -0.169411 -2.13911 12.7908 -0.302404 -0.919757 3.24 -0.910341 -6.42636 -8.21694 -0.27569 -3.58747 -0.0870158 -0.698982 -4.47266e-016 7.95139e-016 7.95139e-016 -84.1232 -29.6052 -10.8381 -28.404 14.4852 -13.0232 0.368473 9.90896 -0.00117926 -4.65131 0.50048 8.01298 98.5728 -30.8458 9.39217 16.1274 13.3617 6.62323 -0.369625 9.91382 0.00119885 -11.147 -15.5584 -9.54878 -4.27569 23.6712 21.8902 -9.97088 -12.6226 -0.780319 -6.64998 -12.8735 3.35218 
6.72217 98.9909 -9.98937 -4.88722 -0.0650141 178.144 -6.11807 -18.3237 -12.2425 -17.1978 71.0572 -3.88653 -0.205106 -1.10044 -0.17337 -1.03788 9.32345 -1.75913 -1.11925 3.26549 -0.894598 -6.39532 -7.93966 -0.256379 -3.23299 0.193811 -1.08694 7.95139e-016 7.95139e-016 3.97569e-016 -85.2277 -26.8212 -12.9455 -28.2161 14.409 -12.5828 0.368473 9.90896 -0.00117926 -3.44255 0.52654 6.17136 96.8241 -30.9589 8.71013 16.7584 13.4246 7.07063 -0.369625 9.91382 0.00119885 -11.0448 -14.7781 -9.018 -4.14097 24.0602 21.3107 -10.1143 -13.4715 -0.866595 -6.33902 -13.0209 2.68777 
6.64962 98.9937 -11.2762 -4.85721 0.145488 178.145 -5.71918 -20.7033 -11.0101 -16.0888 71.0389 -5.11765 -0.579899 -2.8733 -0.187522 0.12121 5.94002 -3.64946 -1.44584 3.32411 -0.882791 -6.48576 -7.36342 -0.228453 -2.92603 0.3526 -1.41752 -9.93923e-017 7.95139e-016 3.97569e-016 -86.2127 -24.1667 -15.2268 -27.9892 14.2843 -11.9267 0.368473 9.90896 -0.00117926 -2.52923 0.505706 4.54315 95.6552 -30.6419 8.59279 17.2901 13.4623 7.33577 -0.369625 9.91382 0.00119885 -11.0741 -13.8244 -8.66967 -4.07848 24.3268 20.9589 -10.2426 -14.1731 -0.938507 -6.71196 -13.3761 3.10839 
6.59076 99.0055 -12.5213 -4.83079 0.441637 178.163 -5.24402 -22.7848 -9.66452 -14.5278 70.2954 -6.79371 -0.959233 -4.61507 -0.205378 1.12632 2.76382 -5.59498 -1.78779 3.37341 -0.876911 -6.59314 -6.64256 -0.196406 -2.62819 0.52284 -1.79216 -5.46658e-016 7.95139e-016 -0 -87.0691 -21.51 -17.5718 -27.6687 14.1338 -11.1535 0.368473 9.90896 -0.00117926 -1.66613 0.451783 2.95694 94.6991 -30.1738 8.72453 17.7581 13.4852 7.50242 -0.369625 9.91382 0.00119885 -11.1108 -12.7496 -8.52687 -4.05171 24.4634 20.8439 -10.3826 -14.807 -1.00629 -7.06742 -13.7474 3.50343 
6.53891 99.0529 -13.7566 -4.7033 0.761672 178.35 -4.69827 -24.5417 -8.41868 -12.8867 68.7145 -8.50595 -1.08734 -5.73469 -0.221515 1.9316 0.0285743 -7.26621 -2.09566 3.37649 -0.875116 -6.63638 -5.8579 -0.160923 -2.32895 0.81694 -2.29563 -6.4605e-016 0 3.97569e-016 -87.8289 -18.8046 -19.9231 -27.1624 13.9937 -10.3973 0.368473 9.90896 -0.00117926 -0.662305 0.374135 1.26609 93.731 -29.7813 8.91848 18.1429 13.4901 7.57178 -0.369625 9.91382 0.00119885 -11.0702 -11.5756 -8.69998 -4.05434 24.4462 21.0892 -10.5664 -15.471 -1.0829 -6.79054 -13.9693 2.84396 
6.50014 99.1219 -14.9779 -4.52207 1.12024 178.628 -4.13899 -25.9509 -7.17923 -11.0735 66.4095 -10.3453 -1.16288 -6.55379 -0.237942 2.48557 -2.29155 -8.40522 -2.34805 3.36729 -0.881167 -6.6517 -5.00208 -0.123819 -2.01832 1.08763 -2.85122 -8.07563e-016 0 -7.95139e-016 -88.3823 -15.9928 -22.1616 -26.6744 13.8808 -9.76106 0.368473 9.90896 -0.00117926 0.370083 0.27037 -0.422686 92.8125 -29.3737 9.16579 18.4998 13.4943 7.638 -0.369625 9.91382 0.00119885 -10.9541 -10.3022 -8.95978 -4.06026 24.2905 21.4379 -10.7275 -16.0365 -1.14923 -6.27669 -14.1724 1.76324 
6.48182 99.2162 -16.1946 -4.29453 1.53357 178.975 -3.6187 -26.9442 -5.88637 -8.93152 63.4143 -12.5353 -1.36838 -7.13594 -0.256964 2.73064 -4.3084 -8.41473 -2.49736 3.37024 -0.902565 -6.66106 -4.07217 -0.0867579 -1.67403 1.22948 -3.40086 -7.82715e-016 -3.97569e-016 -0 -88.6069 -12.8966 -24.1423 -26.4395 13.8299 -9.41358 0.368473 9.90896 -0.00117926 1.41281 0.137168 -2.0683 91.9151 -28.9181 9.40552 18.8893 13.5104 7.7832 -0.369625 9.91382 0.00119885 -10.7427 -8.89064 -9.10038 -4.03637 23.955 21.7341 -10.8167 -16.3002 -1.18114 -5.54146 -14.555 0.160505 
6.47329 99.3091 -17.3975 -4.0344 1.93494 179.368 -3.15924 -27.6353 -4.67216 -7.00127 59.8476 -14.3602 -1.49705 -7.66431 -0.272489 2.81668 -5.58944 -7.92475 -2.57279 3.37689 -0.926256 -6.62539 -3.13572 -0.0507353 -1.3441 1.23034 -3.97278 -6.4605e-016 -1.98785e-016 -3.97569e-016 -88.6349 -9.84503 -25.9458 -26.2842 13.8296 -9.28897 0.368473 9.90896 -0.00117926 2.37705 -0.0123423 -3.62065 91.0931 -28.4678 9.61193 19.2753 13.5479 8.04497 -0.369625 9.91382 0.00119885 -10.4851 -7.46938 -9.17769 -3.99311 23.5914 21.7983 -10.8101 -16.5831 -1.20524 -5.09942 -14.7491 -0.788515 
6.46129 99.3662 -18.5811 -3.7298 2.24121 179.784 -2.78764 -28.1288 -3.62844 -5.2683 55.8402 -15.5786 -1.33932 -8.52272 -0.278716 2.69631 -5.38751 -7.41575 -2.58436 3.396 -0.933571 -6.4644 -2.28391 -0.0182977 -1.09583 0.997207 -4.6098 3.23025e-016 1.98785e-016 1.98785e-016 -88.6267 -7.07934 -27.5675 -26.0887 13.8827 -9.39498 0.368473 9.90896 -0.00117926 3.11865 -0.173062 -5.05449 90.391 -28.0344 9.70752 19.6761 13.6297 8.54237 -0.369625 9.91382 0.00119885 -10.2147 -6.18124 -9.16944 -3.94124 23.3856 21.1857 -10.6048 -17.2677 -1.24545 -5.7662 -14.2206 0.843142 
6.46104 99.4135 -19.7443 -3.45414 2.51756 -179.801 -2.51909 -28.4071 -2.8203 -3.89589 51.4778 -16.2353 -1.08608 -9.17276 -0.277233 2.46925 -4.69714 -6.7494 -2.54195 3.40038 -0.948845 -6.32254 -1.443 0.013657 -0.859406 0.668389 -5.21014 7.47772e-016 1.98785e-016 -1.98785e-016 -88.5147 -4.58736 -29.0253 -25.9188 13.975 -9.68138 0.368473 9.90896 -0.00117926 3.79484 -0.324471 -6.25416 89.8199 -27.7097 9.79055 19.9856 13.726 9.11384 -0.369625 9.91382 0.00119885 -9.96942 -4.94248 -9.09675 -3.87753 23.1782 20.5435 -10.3942 -17.9661 -1.28794 -6.61256 -13.6959 2.71182 
6.49106 99.47 -20.8775 -3.27523 2.81163 -179.413 -2.36149 -28.4783 -2.37278 -3.04604 46.8253 -16.1829 -0.89555 -8.99174 -0.266276 2.301 -4.66154 -5.96768 -2.451 3.35778 -0.995191 -6.33672 -0.54865 0.0471444 -0.556472 0.357143 -5.66537 2.6469e-016 0 4.96962e-017 -88.266 -2.40937 -30.3307 -25.7859 14.09 -10.091 0.368473 9.90896 -0.00117926 4.57684 -0.443675 -7.05573 89.3883 -27.6384 9.91426 20.0858 13.831 9.71558 -0.369625 9.91382 0.00119885 -9.78021 -3.71899 -8.99164 -3.79317 22.8712 20.5192 -10.3958 -18.3561 -1.32768 -6.70761 -13.9807 2.67828 
